<svg width="169" height="56" viewBox="0 0 169 56" fill="none" xmlns="http://www.w3.org/2000/svg">
<path d="M50.5469 35.291L52.0605 34.998V24.793L50.5469 24.5V22.7812H61.8652V26.6777H59.6777L59.5508 24.9785H54.9121V28.8945H59.8926V31.0918H54.9121V34.998L56.4355 35.291V37H50.5469V35.291ZM62.7637 31.6191C62.7637 30.0436 63.2031 28.7546 64.082 27.752C64.9674 26.7428 66.1882 26.2383 67.7441 26.2383C69.3066 26.2383 70.5273 26.7396 71.4062 27.7422C72.2917 28.7448 72.7344 30.0371 72.7344 31.6191V31.8242C72.7344 33.4128 72.2917 34.7083 71.4062 35.7109C70.5273 36.707 69.3132 37.2051 67.7637 37.2051C66.1947 37.2051 64.9674 36.707 64.082 35.7109C63.2031 34.7083 62.7637 33.4128 62.7637 31.8242V31.6191ZM65.6152 31.8242C65.6152 32.7878 65.7845 33.5625 66.123 34.1484C66.4616 34.7279 67.0085 35.0176 67.7637 35.0176C68.4993 35.0176 69.0365 34.7246 69.375 34.1387C69.7201 33.5527 69.8926 32.7812 69.8926 31.8242V31.6191C69.8926 30.6816 69.7201 29.9167 69.375 29.3242C69.0299 28.7318 68.4863 28.4355 67.7441 28.4355C67.002 28.4355 66.4616 28.7318 66.123 29.3242C65.7845 29.9167 65.6152 30.6816 65.6152 31.6191V31.8242ZM73.9746 31.6191C73.9746 30.0436 74.4141 28.7546 75.293 27.752C76.1784 26.7428 77.3991 26.2383 78.9551 26.2383C80.5176 26.2383 81.7383 26.7396 82.6172 27.7422C83.5026 28.7448 83.9453 30.0371 83.9453 31.6191V31.8242C83.9453 33.4128 83.5026 34.7083 82.6172 35.7109C81.7383 36.707 80.5241 37.2051 78.9746 37.2051C77.4056 37.2051 76.1784 36.707 75.293 35.7109C74.4141 34.7083 73.9746 33.4128 73.9746 31.8242V31.6191ZM76.8262 31.8242C76.8262 32.7878 76.9954 33.5625 77.334 34.1484C77.6725 34.7279 78.2194 35.0176 78.9746 35.0176C79.7103 35.0176 80.2474 34.7246 80.5859 34.1387C80.931 33.5527 81.1035 32.7812 81.1035 31.8242V31.6191C81.1035 30.6816 80.931 29.9167 80.5859 29.3242C80.2409 28.7318 79.6973 28.4355 78.9551 28.4355C78.2129 28.4355 77.6725 28.7318 77.334 29.3242C76.9954 29.9167 76.8262 30.6816 76.8262 31.6191V31.8242ZM92.0605 35.7109C91.7285 36.1992 91.3346 36.5703 90.8789 36.8242C90.4297 37.0781 89.9154 37.2051 89.3359 37.2051C88.0339 37.2051 87.0215 36.7298 86.2988 35.7793C85.5827 34.8288 85.2246 33.5723 85.2246 32.0098V31.8047C85.2246 30.138 85.5859 28.7936 86.3086 27.7715C87.0312 26.7493 88.0469 26.2383 89.3555 26.2383C89.8828 26.2383 90.3581 26.3555 90.7812 26.5898C91.2044 26.8177 91.5755 27.1432 91.8945 27.5664V23.7773L90.3711 23.4844V21.7656H91.8945H94.7461V34.998L96.1133 35.291V37H92.2754L92.0605 35.7109ZM88.0762 32.0098C88.0762 32.9342 88.2292 33.6634 88.5352 34.1973C88.8477 34.7246 89.3555 34.9883 90.0586 34.9883C90.4753 34.9883 90.8366 34.9036 91.1426 34.7344C91.4486 34.5651 91.6992 34.321 91.8945 34.002V29.5195C91.6992 29.181 91.4486 28.9206 91.1426 28.7383C90.8431 28.5495 90.4883 28.4551 90.0781 28.4551C89.3815 28.4551 88.8737 28.7643 88.5547 29.3828C88.2357 30.0013 88.0762 30.8086 88.0762 31.8047V32.0098ZM102.08 37.2051C100.557 37.2051 99.3392 36.7168 98.4277 35.7402C97.5163 34.7637 97.0605 33.5234 97.0605 32.0195V31.6289C97.0605 30.0599 97.4902 28.7676 98.3496 27.752C99.2155 26.7363 100.374 26.2318 101.826 26.2383C103.252 26.2383 104.359 26.668 105.146 27.5273C105.934 28.3867 106.328 29.5488 106.328 31.0137V32.5664H100.02L100 32.625C100.052 33.3216 100.283 33.8945 100.693 34.3438C101.11 34.793 101.673 35.0176 102.383 35.0176C103.014 35.0176 103.538 34.9557 103.955 34.832C104.372 34.7018 104.827 34.5 105.322 34.2266L106.094 35.9844C105.658 36.3294 105.091 36.6191 104.395 36.8535C103.704 37.0879 102.933 37.2051 102.08 37.2051ZM101.826 28.4355C101.299 28.4355 100.882 28.6374 100.576 29.041C100.27 29.4447 100.081 29.9753 100.01 30.6328L100.039 30.6816H103.535V30.4277C103.535 29.8223 103.392 29.3405 103.105 28.9824C102.826 28.6178 102.399 28.4355 101.826 28.4355ZM118.486 28.1523L117.5 28.2988L113.613 38.582C113.307 39.3438 112.897 39.9818 112.383 40.4961C111.875 41.0104 111.107 41.2676 110.078 41.2676C109.837 41.2676 109.609 41.248 109.395 41.209C109.186 41.1699 108.939 41.1146 108.652 41.043L108.984 38.9629C109.076 38.9759 109.17 38.9889 109.268 39.002C109.365 39.015 109.45 39.0215 109.521 39.0215C109.997 39.0215 110.361 38.9043 110.615 38.6699C110.869 38.4421 111.064 38.1556 111.201 37.8105L111.523 37.0098L108.174 28.3086L107.188 28.1523V26.4336H112.363V28.1523L111.182 28.3477L112.627 32.5664L112.773 33.3281L112.832 33.3379L114.502 28.3477L113.311 28.1523V26.4336H118.486V28.1523ZM125.713 22.7812C127.451 22.7812 128.883 23.3379 130.01 24.4512C131.136 25.5579 131.699 26.9805 131.699 28.7188V31.0723C131.699 32.8171 131.136 34.2428 130.01 35.3496C128.883 36.4499 127.451 37 125.713 37H119.316V35.291L120.83 34.998V24.793L119.316 24.5V22.7812H120.83H125.713ZM123.682 24.9785V34.8125H125.566C126.589 34.8125 127.389 34.4674 127.969 33.7773C128.548 33.0872 128.838 32.1855 128.838 31.0723V28.6992C128.838 27.599 128.548 26.7038 127.969 26.0137C127.389 25.3236 126.589 24.9785 125.566 24.9785H123.682ZM139.902 37C139.824 36.8242 139.756 36.6452 139.697 36.4629C139.639 36.2741 139.593 36.0853 139.561 35.8965C139.222 36.2871 138.809 36.6029 138.32 36.8438C137.839 37.0846 137.285 37.2051 136.66 37.2051C135.625 37.2051 134.801 36.9251 134.189 36.3652C133.584 35.7988 133.281 35.0306 133.281 34.0605C133.281 33.071 133.678 32.306 134.473 31.7656C135.267 31.2253 136.432 30.9551 137.969 30.9551H139.424V29.9199C139.424 29.4121 139.277 29.0182 138.984 28.7383C138.691 28.4583 138.258 28.3184 137.686 28.3184C137.36 28.3184 137.07 28.3574 136.816 28.4355C136.562 28.5072 136.357 28.5951 136.201 28.6992L136.016 29.832H133.867L133.877 27.4883C134.398 27.1367 134.993 26.8405 135.664 26.5996C136.341 26.3587 137.077 26.2383 137.871 26.2383C139.18 26.2383 140.241 26.5605 141.055 27.2051C141.875 27.8431 142.285 28.7546 142.285 29.9395V34.3047C142.285 34.4674 142.285 34.6204 142.285 34.7637C142.292 34.9069 142.305 35.0436 142.324 35.1738L143.193 35.291V37H139.902ZM137.432 35.0957C137.861 35.0957 138.252 35.0046 138.604 34.8223C138.955 34.6335 139.229 34.3991 139.424 34.1191V32.5078H137.969C137.363 32.5078 136.904 32.651 136.592 32.9375C136.279 33.2174 136.123 33.556 136.123 33.9531C136.123 34.3112 136.237 34.5911 136.465 34.793C136.699 34.9948 137.021 35.0957 137.432 35.0957ZM144.082 35.291L145.459 34.998V28.4453L143.936 28.1523V26.4336H148.311V34.998L149.678 35.291V37H144.082V35.291ZM148.311 23.9043H145.459V21.7656H148.311V23.9043ZM150.312 23.4844V21.7656H154.688V34.998L156.064 35.291V37H150.459V35.291L151.836 34.998V23.7773L150.312 23.4844ZM167.939 28.1523L166.953 28.2988L163.066 38.582C162.76 39.3438 162.35 39.9818 161.836 40.4961C161.328 41.0104 160.56 41.2676 159.531 41.2676C159.29 41.2676 159.062 41.248 158.848 41.209C158.639 41.1699 158.392 41.1146 158.105 41.043L158.438 38.9629C158.529 38.9759 158.623 38.9889 158.721 39.002C158.818 39.015 158.903 39.0215 158.975 39.0215C159.45 39.0215 159.814 38.9043 160.068 38.6699C160.322 38.4421 160.518 38.1556 160.654 37.8105L160.977 37.0098L157.627 28.3086L156.641 28.1523V26.4336H161.816V28.1523L160.635 28.3477L162.08 32.5664L162.227 33.3281L162.285 33.3379L163.955 28.3477L162.764 28.1523V26.4336H167.939V28.1523Z" fill="white"/>
<path d="M19.3324 21.751C18.9112 21.2346 18.3115 20.9322 17.6872 20.9214C16.4315 20.9033 15.3926 22.0246 15.3713 23.43C15.3645 23.883 15.6868 24.2564 16.0912 24.2641C16.0955 24.2642 16.0996 24.2642 16.1039 24.2642C16.5027 24.2642 16.8292 23.906 16.836 23.4577C16.8435 22.9558 17.2118 22.553 17.6643 22.5618C17.8902 22.5657 18.0985 22.6707 18.2509 22.8575C18.5238 23.1921 18.9871 23.2155 19.2857 22.9099C19.5843 22.6044 19.6053 22.0855 19.3324 21.751Z" fill="white"/>
<path d="M23.2291 24.4245C23.0046 23.8334 22.5676 23.3669 22.0298 23.1446C20.9484 22.6978 19.7428 23.3187 19.3421 24.5285C19.2014 24.9533 19.3949 25.4253 19.7741 25.583C19.8581 25.6178 19.9441 25.6344 20.0287 25.6344C20.3262 25.6344 20.6059 25.4298 20.7155 25.0991C20.8358 24.7357 21.1984 24.5498 21.5226 24.6838C21.6856 24.7512 21.8129 24.8871 21.881 25.0665C22.0393 25.4833 22.4696 25.6778 22.8416 25.5004C23.214 25.3231 23.3873 24.8414 23.2291 24.4245Z" fill="white"/>
<path d="M27.9497 17.1592C27.6633 16.8391 27.1996 16.8398 26.9139 17.1604L26.2235 17.9352C25.9378 18.2559 25.9383 18.7753 26.2246 19.0953C26.3675 19.2551 26.5547 19.3349 26.7419 19.3349C26.9296 19.3349 27.1173 19.2546 27.2603 19.0941L27.9508 18.3193C28.2365 17.9986 28.236 17.4792 27.9497 17.1592Z" fill="white"/>
<path d="M23.393 27.7493H22.4168C22.0122 27.7493 21.6844 28.1166 21.6844 28.5696C21.6844 29.0227 22.0122 29.3899 22.4168 29.3899H23.393C23.7976 29.3899 24.1254 29.0227 24.1254 28.5696C24.1254 28.1166 23.7976 27.7493 23.393 27.7493Z" fill="white"/>
<path d="M30.8777 27.7493H29.9014C29.4968 27.7493 29.169 28.1166 29.169 28.5696C29.169 29.0227 29.4969 29.3899 29.9014 29.3899H30.8777C31.2822 29.3899 31.6101 29.0227 31.6101 28.5696C31.6101 28.1166 31.2822 27.7493 30.8777 27.7493Z" fill="white"/>
<path d="M49.9765 42.5404L49.7857 41.3873C49.6642 40.6506 49.0897 40.1159 48.4199 40.1159C48.3358 40.1159 48.2511 40.1245 48.1677 40.1417L44.2849 40.9406L46.0433 39.624C46.5041 39.279 46.737 38.662 46.6365 38.0498C46.6086 37.8821 46.5563 37.7212 46.4805 37.5706L45.9484 36.5153C45.766 36.1527 45.4551 35.8833 45.0962 35.7765C44.9204 35.724 44.7366 35.7123 44.5573 35.7385C44.7531 34.5281 44.8541 33.292 44.8541 32.0336C44.8541 31.4753 44.5543 30.9948 44.1261 30.7814C44.6857 29.2908 44.7238 27.5844 44.1707 26.0216C44.1259 25.8945 44.0593 25.7811 43.9731 25.6844C43.8875 25.5886 43.7874 25.5146 43.6739 25.4635C43.0111 25.1679 42.3145 25.018 41.6035 25.018C41.5125 25.018 41.422 25.0206 41.3318 25.0255C41.2303 22.7359 39.5384 20.9082 37.473 20.9082C37.201 20.9082 36.9358 20.9405 36.6796 21.0009C36.8576 19.8087 36.7528 18.5615 36.3382 17.3906C36.2937 17.2618 36.2268 17.1463 36.1359 17.0429C36.0484 16.9449 35.9458 16.8693 35.8319 16.8186C35.1179 16.5001 34.3675 16.3387 33.6015 16.3387C32.4476 16.3387 31.3438 16.7021 30.3909 17.3776C30.0428 16.248 29.4686 15.1877 28.6665 14.2872C28.4315 14.0236 28.119 13.8783 27.7865 13.8783C27.454 13.8783 27.1415 14.0236 26.9062 14.2874L23.3601 18.2682C22.7038 17.6126 21.8402 17.2207 20.9029 17.2207C20.6903 17.2207 20.4755 17.2416 20.2647 17.2827C19.5007 17.4317 18.7977 17.8505 18.2587 18.4639C17.5676 18.0903 16.7759 17.9629 16.0151 18.1112C15.8477 18.1438 15.6853 18.1898 15.5277 18.2458V15.1782C15.5277 13.0658 14.0118 11.3441 12.1366 11.3078V9.5681C12.7106 9.45686 13.1489 8.89654 13.1489 8.22235V4.2806C13.1489 3.52679 12.6013 2.91342 11.9282 2.91342H5.97205C5.29891 2.91342 4.75135 3.52679 4.75135 4.2806V8.22235C4.75135 8.89654 5.18963 9.45686 5.76365 9.5681V11.3076C3.88846 11.3438 2.37265 13.0655 2.37265 15.178V39.1197C0.910348 40.5988 0 42.6625 0 44.9448C0 49.4341 3.51805 53.0866 7.84245 53.0866L37.1575 53.077C38.1581 53.0765 39.0991 52.584 39.7391 51.7259C40.3625 50.8905 40.6275 49.8054 40.4748 48.7352L46.33 49.9138C46.411 49.93 46.4941 49.9384 46.5764 49.9384C46.8684 49.9384 47.1482 49.838 47.3851 49.6483C47.6897 49.4046 47.8958 49.0274 47.9508 48.6136L48.1094 47.4218C48.1322 47.251 48.1297 47.0791 48.1019 46.9105C48.0011 46.3011 47.5867 45.8176 47.0462 45.6789L44.9824 45.1486L48.8614 44.3505C49.2272 44.2753 49.5446 44.0453 49.7552 43.7028C49.9653 43.3612 50.0438 42.9485 49.9765 42.5404ZM41.6035 26.6584C42.0444 26.6584 42.4779 26.7366 42.8947 26.8907C43.2671 28.161 43.1277 29.5311 42.5445 30.663H40.5714L41.201 29.9562C41.4868 29.6355 41.4862 29.1161 41.1997 28.796C40.9133 28.476 40.4496 28.4766 40.164 28.7973L39.8309 29.1713C39.6747 28.5954 39.4021 28.0799 39.0437 27.6569C39.7706 27.0104 40.663 26.6584 41.6035 26.6584ZM37.473 22.5486C38.7957 22.5486 39.8718 23.7574 39.8718 25.2432C39.8718 25.2708 39.8706 25.298 39.87 25.3254C39.0979 25.6066 38.3863 26.0763 37.7793 26.7143C37.6828 26.6733 37.5848 26.6352 37.4842 26.6041C37.27 25.3078 36.49 24.2687 35.4596 23.7834C35.8873 23.0414 36.6293 22.5486 37.473 22.5486ZM33.6014 17.9791C34.0989 17.9791 34.5878 18.0692 35.0588 18.2475C35.4375 19.5084 35.3601 20.8628 34.8777 22.0359C34.4811 22.4405 34.1593 22.936 33.9394 23.4929C33.8087 23.5014 33.6779 23.5176 33.5487 23.5428C32.9748 23.6547 32.4396 23.9336 31.9918 24.338C31.839 24.0252 31.652 23.7366 31.4378 23.4767L33.1174 21.5913C33.4031 21.2706 33.4025 20.7512 33.1161 20.4313C32.8298 20.1113 32.366 20.1118 32.0802 20.4326L30.2445 22.4933C29.8952 22.3084 29.5177 22.1798 29.1209 22.1196C29.2923 21.1407 29.7164 20.2183 30.3724 19.4818C31.2356 18.5128 32.3824 17.9791 33.6014 17.9791ZM27.9891 30.663H27.3543C27.2474 30.3582 26.983 30.1422 26.6729 30.1422C26.3629 30.1422 26.0985 30.3583 25.9916 30.663H25.2447C25.4182 30.3466 25.3831 29.9275 25.1383 29.6539C24.852 29.3338 24.3882 29.3344 24.1024 29.6551L23.4121 30.4299C23.3501 30.4994 23.3024 30.5787 23.2674 30.663H21.7767C21.2184 29.7034 20.8777 28.5708 20.8373 27.3524H32.457C32.4167 28.5708 32.0759 29.7034 31.5177 30.663H29.9664C29.9314 30.5787 29.8836 30.4993 29.8217 30.4298L29.1314 29.655C28.8456 29.3344 28.382 29.3335 28.0957 29.6536C27.8507 29.9273 27.8156 30.3465 27.9891 30.663ZM26.2857 25.7118C26.5618 24.5659 27.4951 23.7203 28.6012 23.7203C29.7073 23.7203 30.6406 24.566 30.9167 25.7118H26.2857ZM27.7835 15.6252C28.4802 16.4684 28.9408 17.4696 29.1667 18.522C28.7928 18.9772 28.4821 19.4801 28.2371 20.0152C28.1259 19.9389 27.9955 19.8942 27.8556 19.8942H26.8796C26.4751 19.8942 26.1472 20.2614 26.1472 20.7145C26.1472 21.1675 26.4751 21.5348 26.8796 21.5348H27.7357C27.6876 21.7613 27.6502 21.9905 27.623 22.2215C27.3322 22.3071 27.0545 22.4289 26.7945 22.584C26.3063 21.6404 25.4979 20.9373 24.5401 20.6552C24.5398 20.6529 24.5395 20.6506 24.5391 20.6483C24.4816 20.2771 24.3814 19.9249 24.2448 19.5975L27.7835 15.6252ZM14.5435 23.0272C14.5005 22.8927 14.468 22.7546 14.4466 22.6162C14.2366 21.2598 15.053 19.9639 16.2661 19.7274C16.3941 19.7024 16.5241 19.6897 16.6524 19.6897C17.1349 19.6897 17.596 19.8621 17.9858 20.1882C18.147 20.3231 18.3509 20.3777 18.5493 20.3392C18.7478 20.3006 18.9233 20.1723 19.0346 19.9843C19.3784 19.4034 19.9045 19.018 20.5158 18.8987C20.6441 18.8737 20.7743 18.8611 20.9029 18.8611C21.9881 18.8611 22.9104 19.7306 23.0957 20.9288C23.117 21.0661 23.1279 21.2092 23.1281 21.3541C23.1288 21.7787 23.4188 22.1326 23.7965 22.1698C24.6153 22.2504 25.3124 22.8276 25.6355 23.6407C25.2029 24.2222 24.903 24.9323 24.7892 25.7118H20.6122C20.0929 25.7118 19.6473 26.0709 19.4614 26.579C18.5425 25.878 17.4595 25.5004 16.3245 25.5004C15.6135 25.5004 14.9169 25.6503 14.2537 25.9461C14.1412 25.9964 14.0406 26.0706 13.9548 26.1667C13.8679 26.264 13.8012 26.3781 13.7575 26.5032C13.5889 26.9793 13.4765 27.4688 13.4158 27.9613C13.1533 27.6266 12.9683 27.2104 12.896 26.7434C12.7238 25.6304 13.244 24.5222 14.1607 24.0484C14.5052 23.8704 14.6713 23.4272 14.5435 23.0272ZM16.7269 30.4386L16.9267 30.663H15.1676C14.7727 29.6368 14.7127 28.4688 15.0333 27.3733C15.4507 27.219 15.884 27.1409 16.3245 27.1409C17.4282 27.1409 18.4663 27.624 19.2477 28.5011C19.3516 28.6178 19.4484 28.74 19.5393 28.8664C19.6634 29.4957 19.8541 30.0969 20.0998 30.6628H18.996L17.7639 29.2797C17.4781 28.9591 17.0143 28.9582 16.7282 29.2784C16.4417 29.5985 16.4411 30.1179 16.7269 30.4386ZM13.6078 30.663H10.9967C11.1131 29.8683 11.5399 29.191 12.1323 28.7916C12.483 29.3178 12.9407 29.7432 13.468 30.0314C13.5053 30.2443 13.5511 30.4553 13.6078 30.663ZM6.21619 4.55404H11.684V7.94892H6.21619V4.55404ZM10.6717 9.58954V11.306H7.22859V9.58954H10.6717ZM3.83758 18.5048H8.59372C8.9983 18.5048 9.32614 18.1375 9.32614 17.6845C9.32614 17.2314 8.9983 16.8641 8.59372 16.8641H3.83758V15.178C3.83758 13.9476 4.7286 12.9466 5.82381 12.9466H12.0765C13.1718 12.9466 14.0628 13.9476 14.0628 15.178V16.8641H12.6953C12.2907 16.8641 11.9628 17.2314 11.9628 17.6845C11.9628 18.1375 12.2907 18.5048 12.6953 18.5048H14.0628V19.2329C13.2237 20.1544 12.7878 21.5057 13.0031 22.8957C13.0035 22.8985 13.004 22.9013 13.0043 22.9041C11.8293 23.807 11.2033 25.4122 11.4526 27.0236C11.4671 27.1177 11.4854 27.2102 11.5053 27.3018C11.1394 27.5277 10.8108 27.8195 10.5292 28.161H3.83758V18.5048ZM3.83749 29.8015H9.67867C9.60094 30.078 9.54606 30.3658 9.5193 30.663H9.39586C8.72174 30.663 8.17321 31.2777 8.17321 32.0334C8.17321 33.336 8.28132 34.6147 8.49079 35.8657C8.28034 35.8468 8.06452 35.8366 7.84499 35.8366C6.95925 35.8366 6.11531 35.994 5.46892 36.2799C4.48016 36.7172 4.20682 37.3381 4.14715 37.7677C4.04237 37.8261 3.93944 37.8878 3.83749 37.9509V29.8015ZM13.112 39.8787C13.3757 40.1151 13.537 40.316 13.6304 40.4609C13.6216 40.4611 13.6124 40.4612 13.6032 40.4612C13.1886 40.4612 12.4438 40.274 11.5968 39.7489C11.2815 39.5532 10.991 39.3322 10.7566 39.1098C10.4834 38.8505 10.0827 38.8507 9.80963 39.11C9.57526 39.3325 9.28483 39.5535 8.96979 39.7487C8.12262 40.274 7.3778 40.4612 6.96335 40.4612C6.95388 40.4612 6.9448 40.4611 6.93591 40.4609C7.02927 40.316 7.1905 40.115 7.45437 39.8785C7.68493 39.6718 7.7821 39.3301 7.70075 39.0122C7.61931 38.6941 7.37536 38.4619 7.08191 38.4234C6.36716 38.3296 5.91521 38.1258 5.70359 37.9775C5.96873 37.7925 6.63904 37.4772 7.84528 37.4772C8.8443 37.4772 9.57447 37.7125 9.92467 37.9328C10.1474 38.0728 10.419 38.0728 10.6418 37.9329C10.9921 37.7126 11.7224 37.4773 12.7214 37.4773C13.9278 37.4773 14.598 37.7928 14.863 37.9776C14.6515 38.126 14.1995 38.3297 13.4845 38.4235C13.1911 38.4621 12.947 38.6942 12.8657 39.0124C12.784 39.3305 12.8812 39.6721 13.112 39.8787ZM11.6468 49.8631L11.672 50.0151C11.7591 50.542 11.9428 51.0255 12.1995 51.446H7.84245C4.32586 51.446 1.46484 48.5296 1.46484 44.9448C1.46484 42.4949 2.80155 40.3581 4.7699 39.2502C4.99598 39.4392 5.27781 39.6021 5.61219 39.7336C5.47957 39.9872 5.38719 40.26 5.36541 40.5445C5.3365 40.9227 5.43982 41.2819 5.65662 41.556C5.94304 41.9183 6.38269 42.1019 6.96335 42.1019C7.73718 42.1019 8.7525 41.7588 9.67926 41.1841C9.89264 41.0519 10.0944 40.9122 10.2833 40.7663C10.472 40.9121 10.6738 41.0518 10.8873 41.1842C11.814 41.7588 12.8293 42.1018 13.6032 42.1019H13.6033C14.1837 42.1019 14.6234 41.9183 14.9097 41.5561C15.1266 41.282 15.23 40.9228 15.201 40.5445C15.1792 40.26 15.0869 39.9872 14.9542 39.7336C15.2886 39.602 15.5705 39.4391 15.7966 39.2502C17.3576 40.1289 18.5208 41.6548 18.9356 43.4707L13.7554 45.6747C12.2391 46.32 11.3523 48.0814 11.6468 49.8631ZM38.6149 50.674C38.2538 51.1583 37.7222 51.4361 37.1568 51.4364L36.388 51.4367L35.9078 48.5322C35.834 48.0868 35.4521 47.7922 35.0542 47.875C34.6565 47.9575 34.3937 48.3855 34.4673 48.8309L34.8984 51.4372L32.3783 51.4383L32.0536 49.4743C31.9799 49.0288 31.5978 48.7346 31.2 48.8171C30.8023 48.8995 30.5395 49.3275 30.6132 49.773L30.8886 51.439L25.0268 51.4415L24.5855 48.7741C24.5117 48.3286 24.1299 48.0344 23.7319 48.1169C23.3342 48.1994 23.0715 48.6275 23.1451 49.073L23.537 51.4422L14.9781 51.4459C14.9779 51.4459 14.9777 51.4459 14.9775 51.4459C14.0622 51.4459 13.2779 50.7185 13.1121 49.716L13.0869 49.564C12.9213 48.5625 13.4211 47.5719 14.2753 47.2084L17.1539 45.9836L17.3684 47.2799C17.4337 47.6749 17.7415 47.9509 18.0876 47.9509C18.132 47.9509 18.1769 47.9463 18.222 47.937C18.6197 47.8544 18.8823 47.4265 18.8086 46.981L18.5456 45.3914L22.8186 43.5734C23.1967 43.4125 23.3868 42.9387 23.2432 42.5152C23.0995 42.0916 22.676 41.8788 22.2984 42.0397L20.3101 42.8857C19.7523 40.6738 18.3193 38.8261 16.419 37.7676C16.3593 37.338 16.086 36.7171 15.0973 36.2798C14.4509 35.9939 13.607 35.8365 12.7212 35.8365C12.1117 35.8365 11.5295 35.9118 11.0157 36.0491V35.5536C11.0157 35.1006 10.6878 34.7333 10.2833 34.7333C10.1123 34.7333 9.95543 34.7994 9.83072 34.9094C9.7152 34.0538 9.65055 33.1847 9.63981 32.3034H33.496C33.9006 32.3034 34.2284 31.9361 34.2284 31.483C34.2284 31.03 33.9006 30.6627 33.496 30.6627H33.1963C33.6627 29.5869 33.9261 28.3807 33.9261 27.106C33.9261 26.3823 33.4317 25.7861 32.8016 25.7183C33.0759 25.4286 33.4183 25.2333 33.8 25.1588C33.9118 25.137 34.0253 25.126 34.1374 25.126C35.083 25.126 35.8865 25.8836 36.0479 26.9273C36.0666 27.0481 36.0761 27.1728 36.0762 27.298C36.0767 27.7229 36.3668 28.077 36.7446 28.1142C37.6199 28.2003 38.336 28.9376 38.4861 29.9071C38.5259 30.1649 38.5209 30.4193 38.481 30.6627H37.6952C37.2906 30.6627 36.9627 31.03 36.9627 31.483C36.9627 31.9361 37.2906 32.3034 37.6952 32.3034H43.3877C43.3696 33.8081 43.1965 35.278 42.8738 36.7041L38.9044 39.3285C38.6617 38.3822 38.0974 37.5795 37.32 37.0921C36.448 36.5456 35.4118 36.4601 34.4772 36.8577L26.3023 40.336C25.9241 40.4969 25.7341 40.9707 25.8777 41.3942C26.0214 41.8178 26.4448 42.0305 26.8225 41.8698L27.8994 41.4116L28.2338 43.4336C28.2991 43.8286 28.6069 44.1048 28.9531 44.1048C28.9973 44.1048 29.0423 44.1002 29.0874 44.0909C29.485 44.0084 29.7478 43.5804 29.6742 43.1349L29.2913 40.8195L34.9972 38.3917C35.5259 38.1668 36.1117 38.215 36.6045 38.524C37.0965 38.8324 37.4374 39.3639 37.5397 39.9821L39.0214 48.9415C39.1236 49.5594 38.9754 50.1908 38.6149 50.674ZM41.2282 44.2531C40.8865 44.3234 40.636 44.6528 40.6283 45.0419C40.6206 45.4309 40.8581 45.7724 41.1967 45.8593L46.6498 47.2602L46.5136 48.2839L40.1919 47.0115L39.2038 41.0359L44.71 37.3955L45.1687 38.3052L40.5244 41.7823C40.2356 41.9985 40.1221 42.4122 40.2528 42.7727C40.3833 43.1332 40.7222 43.3414 41.0638 43.2711L48.3593 41.7702L48.5218 42.7523L41.2282 44.2531Z" fill="white"/>
<path d="M50 40L111 40" stroke="#FFFDFD" stroke-width="1.5"/>
<path d="M116 40L161 40" stroke="#FFFDFD" stroke-width="1.5"/>
</svg>
